# xmcd
#
# Track frame offsets:
#	150
#	11221
#	26417
#	53588
#	68193
#	79354
#	94232
#	111409
#	147470
#	157801
#	179839
#	194558
#	209191
#	225977
#	247621
#	266536
#
# Disc length: 3830 seconds
#
# Revision: 1
# Processed by: cddbd v1.5.2PL0 Copyright (c) Steve Scherf et al.
# Submitted via: audiograbber 1.83.01
#
DISCID=e40ef410
DTITLE=Pepa Streichl - LIVE for Friends Hulin 1987 a 1988
DYEAR=1900
DGENRE=
TTITLE0=Moravske pole
TTITLE1=Vojaci lasky
TTITLE2=Zatahni rolety
TTITLE3=Co te dnes ucili ve skole
TTITLE4=Chtel jsem byt zpevakem
TTITLE5=Az jednou dohraju
TTITLE6=Hajcman Blues
TTITLE7=Dikobraz
TTITLE8=Vanoce
TTITLE9=Kone se strileji
TTITLE10=Hrajem si hrajem
TTITLE11=Samota, samota...
TTITLE12=Mejdan s mistry
TTITLE13=Dzinova nevesta
TTITLE14=Gavirna Blues
TTITLE15=Nakreslim si
EXTD=
EXTT0=
EXTT1=
EXTT2=
EXTT3=
EXTT4=
EXTT5=
EXTT6=
EXTT7=
EXTT8=
EXTT9=
EXTT10=
EXTT11=
EXTT12=
EXTT13=
EXTT14=
EXTT15=
PLAYORDER=
